<?xml version="1.0" encoding="utf-8"?>
<!-- Generator: Adobe Illustrator 20.1.0, SVG Export Plug-In . SVG Version: 6.00 Build 0)  -->
<svg version="1.1" id="Layer_1" xmlns="http://www.w3.org/2000/svg" xmlns:xlink="http://www.w3.org/1999/xlink" x="0px" y="0px"
	 viewBox="0 0 45.3 38" style="enable-background:new 0 0 45.3 38;" xml:space="preserve">
<style type="text/css">
	.st0{opacity:0.9;}
	.st1{fill:#FFFFFF;}
</style>
<g class="st0">
	<g>
		<path class="st1" d="M0,19c0-4.7,0-9.3,0-14c0-1.9,0.8-2.8,2.7-3c5.4-0.6,10.8-1.1,16.1-1.7c0.8-0.1,1.7-0.2,2.5-0.3
			c1.2-0.1,2.4,0.9,2.4,2.1c0.1,1.6,0,3.2,0,4.8c0,2.1,0,4.1,0,6.2c0,1,0,2.1,0,3.1c0,1.3,0.1,2.6,0,3.9c0,1,0,2.1,0,3.1
			c0,1.3,0,2.5,0,3.8c0,1.1,0,2.3,0,3.4c0,1.3,0,2.6,0,3.9c0,0.6,0,1.3-0.1,1.9c-0.2,1.1-1.3,1.8-2.4,1.7c-3-0.3-6-0.6-9-0.9
			c-2.8-0.3-5.6-0.6-8.4-0.9c-0.5-0.1-0.9-0.1-1.4-0.2C0.9,35.8,0,34.8,0,33.2c0-2.8,0-5.6,0-8.4C0,22.9,0,21,0,19C0,19,0,19,0,19z
			 M22.2,19.1C22.2,19.1,22.2,19.1,22.2,19.1c0-5.5,0-11,0-16.5c0-0.8-0.1-0.9-0.9-0.9C18.8,2,16.4,2.2,14,2.5
			C10.3,2.8,6.6,3.2,3,3.6C1.8,3.7,1.7,3.8,1.7,5c0,5.6,0,11.1,0,16.7c0,3.9,0,7.8,0,11.7c0,0.6,0.1,0.9,0.8,1c2,0.2,4,0.4,5.9,0.6
			c2.9,0.3,5.8,0.6,8.7,0.9c1.5,0.2,3.1,0.3,4.6,0.5c0.4,0,0.5-0.1,0.5-0.5c0-0.2,0-0.4,0-0.7C22.2,29.9,22.2,24.5,22.2,19.1z"/>
		<path class="st1" d="M37.6,19c0,5.3,0,10.7,0,16c0,1.9-1.1,3-3,2.9c-2.6-0.1-5.2-0.4-7.8-0.6c-0.5,0-0.6-0.2-0.5-0.7
			c0.2-1,0.1-1,1.1-0.9c2.4,0.2,4.8,0.4,7.3,0.6c1,0.1,1.2-0.1,1.2-1.1c0-10.8,0-21.5,0-32.3c0-1.1-0.2-1.3-1.3-1.3
			C32.3,1.8,30,2,27.7,2.2c-0.1,0-0.2,0-0.4,0c-0.8,0-1.2-0.5-1-1.3c0.1-0.3,0.3-0.3,0.5-0.3c0.7-0.1,1.3-0.1,2-0.2
			c1.9-0.1,3.8-0.3,5.7-0.4c0.6,0,1.1,0.1,1.6,0.3c0.9,0.5,1.4,1.2,1.4,2.3C37.6,8.1,37.6,13.5,37.6,19C37.6,19,37.6,19,37.6,19z"/>
		<path class="st1" d="M43.6,19.1c0-5,0-10,0-15c0-0.8-0.1-0.9-0.9-0.8c-0.9,0.1-1.8,0.2-2.7,0.4c-0.4,0.1-0.6-0.1-0.6-0.4
			c0-0.2,0-0.4-0.1-0.7c-0.1-0.3,0.1-0.5,0.4-0.5c1.2-0.2,2.5-0.3,3.7-0.5c0.6-0.1,1,0.2,1.3,0.7c0.3,0.5,0.5,1.1,0.5,1.7
			c0,10,0,20.1,0,30.1c0,0.5-0.1,1-0.3,1.5c-0.3,0.8-1,1.1-1.8,1c-1.1-0.2-2.2-0.3-3.4-0.4C39.2,36,39.2,36,39.3,35
			c0.1-0.5,0.3-0.6,0.8-0.5c1,0.1,1.9,0.2,2.9,0.4c0.5,0.1,0.7-0.1,0.7-0.6c0-3.9,0-7.8,0-11.8C43.6,21.4,43.6,20.3,43.6,19.1
			C43.6,19.1,43.6,19.1,43.6,19.1z"/>
		<path class="st1" d="M30.2,19c-0.1,2.9-1,5.5-3.1,7.7c-0.4,0.4-0.6,0.5-0.9,0c-0.1-0.1-0.2-0.2-0.3-0.4c-0.3-0.3-0.3-0.5,0-0.7
			c3.1-2.9,3.4-8.2,1.4-11.5c-0.4-0.6-0.8-1.2-1.3-1.7c-0.3-0.3-0.4-0.6-0.1-0.9c0.1-0.1,0.2-0.2,0.3-0.3c0.2-0.4,0.5-0.4,0.8-0.1
			c1.1,1,1.9,2.3,2.5,3.7C29.9,16.2,30.1,17.6,30.2,19z"/>
		<path class="st1" d="M18.6,19.1c-0.1,2.9-0.7,5.7-2.7,8c-1.8,2.1-4.4,2.5-6.4,0.8c-0.8-0.6-1.4-1.4-1.9-2.3
			c-1-1.8-1.5-3.7-1.6-5.7c-0.1-2.3,0.2-4.5,1.1-6.6c0.6-1.3,1.4-2.5,2.6-3.4c1.8-1.3,4-1.2,5.6,0.3c2,1.9,2.8,4.3,3.2,7
			C18.6,17.8,18.7,18.4,18.6,19.1z M7.7,19.1c0,0.3,0,0.6,0,1c0.1,2,0.6,4,1.8,5.7c1.5,2.1,3.7,2.2,5.4,0.4c0.8-0.8,1.2-1.9,1.6-2.9
			c0.6-1.9,0.7-3.9,0.5-5.9c-0.2-1.9-0.7-3.7-2-5.2c-0.8-1-1.8-1.5-3.1-1.3c-1.1,0.2-1.9,0.9-2.5,1.7C8,14.4,7.7,16.7,7.7,19.1z"/>
	</g>
	<path class="st1" d="M9.6,19.1c0,0.2,0,0.4,0,0.6c0.1,1.2,0.4,2.3,1.1,3.3c0.9,1.2,2.2,1.3,3.2,0.2c0.5-0.5,0.7-1.1,0.9-1.7
		c0.4-1.1,0.4-2.3,0.3-3.5c-0.1-1.1-0.4-2.2-1.2-3.1c-0.5-0.6-1.1-0.9-1.8-0.8c-0.7,0.1-1.1,0.5-1.5,1C9.8,16.4,9.6,17.7,9.6,19.1z"
		/>
</g>
</svg>
